<?xml version="1.0" standalone="no"?>
<!DOCTYPE svg PUBLIC "-//W3C//DTD SVG 20010904//EN"
 "http://www.w3.org/TR/2001/REC-SVG-20010904/DTD/svg10.dtd">
<svg version="1.0" xmlns="http://www.w3.org/2000/svg"
 width="1200.000000pt" height="372.000000pt" viewBox="0 0 1200.000000 372.000000"
 preserveAspectRatio="xMidYMid meet">

<g transform="translate(0.000000,372.000000) scale(0.100000,-0.100000)"
fill="#000000" stroke="none">
<path d="M1089 3604 c-165 -29 -344 -102 -480 -195 -81 -55 -226 -194 -290
-279 -106 -139 -203 -376 -228 -554 -7 -52 -11 -479 -11 -1282 l0 -1205 1228
4 c1208 3 1228 3 1320 24 132 31 209 58 318 113 125 64 210 129 320 242 134
139 216 272 274 446 68 205 63 109 67 1470 l4 1232 -1223 -1 c-990 -1 -1237
-3 -1299 -15z m2231 -260 c0 -4 -22 -52 -49 -108 -255 -525 -774 -867 -1356
-893 -381 -17 -729 91 -1039 323 -86 66 -280 261 -305 308 -14 26 -13 28 50
92 140 143 326 242 516 274 55 9 2183 13 2183 4z m7 -1504 c-3 -771 0 -729
-72 -902 -83 -197 -253 -376 -446 -470 -173 -84 -252 -98 -575 -98 l-254 0 0
839 c0 716 2 842 14 854 8 8 43 17 78 21 434 48 894 294 1177 631 l76 90 3
-135 c1 -74 1 -448 -1 -830z"/>
<path d="M1759 2975 c-25 -8 -67 -34 -94 -57 -200 -176 -65 -497 199 -476 75
6 130 33 180 88 92 102 97 242 13 352 -64 84 -197 125 -298 93z"/>
<path d="M3999 3163 c-54 -46 -59 -71 -59 -298 0 -229 6 -256 61 -296 44 -31
125 -33 166 -3 37 28 60 69 69 122 l7 42 -47 0 c-44 0 -46 -1 -46 -30 0 -57
-67 -92 -104 -54 -14 13 -16 47 -16 220 0 191 1 205 20 224 42 42 100 7 100
-59 0 -18 6 -21 46 -21 l47 0 -7 41 c-15 94 -65 139 -153 139 -41 0 -58 -5
-84 -27z"/>
<path d="M4379 3167 c-63 -42 -69 -67 -69 -295 0 -223 5 -249 58 -294 47 -39
102 -45 160 -16 82 41 87 58 87 308 0 240 -5 262 -68 300 -46 28 -124 27 -168
-3z m139 -84 c9 -12 12 -72 12 -215 0 -185 -1 -199 -20 -218 -24 -24 -67 -26
-92 -3 -16 15 -18 35 -18 224 0 204 0 208 23 224 26 19 76 13 95 -12z"/>
<path d="M4772 3171 c-68 -43 -72 -61 -72 -301 0 -248 5 -268 80 -307 54 -29
86 -29 140 0 75 39 80 59 80 305 0 229 -3 243 -54 291 -37 35 -127 41 -174 12z
m119 -80 c23 -19 24 -24 27 -192 5 -236 -4 -269 -68 -269 -57 0 -60 11 -60
240 0 204 0 209 22 224 30 21 51 20 79 -3z"/>
<path d="M5090 2871 l0 -321 45 0 45 0 0 124 0 124 55 4 c62 5 100 28 128 76
26 45 26 190 0 234 -35 60 -64 73 -174 76 l-99 4 0 -321z m190 219 c16 -16 20
-33 20 -93 0 -90 -11 -107 -73 -114 l-47 -6 0 117 0 116 40 0 c27 0 47 -7 60
-20z"/>
<path d="M5460 2870 l0 -320 135 0 135 0 0 45 0 45 -90 0 -90 0 0 95 0 95 80
0 80 0 0 40 0 40 -80 0 -80 0 0 100 0 100 90 0 90 0 0 40 0 40 -135 0 -135 0
0 -320z"/>
<path d="M5790 2871 l0 -321 45 0 45 0 0 135 0 135 33 0 32 0 41 -132 40 -133
47 -3 46 -3 -49 145 -48 144 25 24 c36 33 53 79 53 142 0 71 -24 130 -64 159
-26 19 -47 22 -138 26 l-108 3 0 -321z m207 213 c8 -11 13 -45 13 -85 0 -59
-3 -70 -22 -83 -12 -9 -42 -16 -65 -16 l-43 0 0 106 0 107 52 -5 c34 -4 56
-12 65 -24z"/>
<path d="M6216 2883 c-38 -170 -71 -314 -73 -320 -4 -9 8 -13 40 -13 l45 0 13
70 12 70 67 0 67 0 12 -70 13 -70 45 0 c32 0 44 4 41 13 -3 6 -36 150 -73 320
l-68 307 -36 0 -37 0 -68 -307z m129 15 c10 -57 20 -109 22 -115 4 -9 -9 -13
-47 -13 -44 0 -51 2 -47 18 3 9 13 61 23 115 10 53 21 97 24 97 4 0 15 -46 25
-102z"/>
<path d="M6460 3150 l0 -40 50 0 50 0 0 -280 0 -280 45 0 45 0 0 280 0 280 55
0 55 0 0 40 0 40 -150 0 -150 0 0 -40z"/>
<path d="M6810 2870 l0 -320 40 0 40 0 0 320 0 320 -40 0 -40 0 0 -320z"/>
<path d="M6960 3186 c0 -8 121 -602 126 -618 4 -13 16 -18 43 -18 37 0 39 2
45 38 3 20 33 164 65 320 l58 282 -46 0 -47 0 -33 -207 c-19 -115 -37 -217
-41 -227 -4 -12 -20 63 -39 185 -44 274 -35 249 -87 249 -24 0 -44 -2 -44 -4z"/>
<path d="M7425 3178 c-8 -25 -135 -601 -135 -614 0 -10 13 -14 39 -14 42 0 43
1 56 70 13 72 11 70 80 70 70 0 66 4 80 -92 l7 -48 44 0 c24 0 44 3 44 6 0 5
-124 563 -136 609 -5 21 -12 25 -40 25 -19 0 -37 -6 -39 -12z m64 -287 c12
-57 21 -108 21 -112 0 -5 -22 -9 -48 -9 l-49 0 23 113 c12 61 23 114 23 116 3
14 11 -16 30 -108z"/>
<path d="M5035 2326 c-108 -27 -189 -91 -234 -186 l-26 -55 0 -475 c0 -541 -1
-532 84 -623 139 -149 373 -149 512 0 85 91 84 82 84 623 0 470 0 475 -22 523
-49 105 -133 171 -251 196 -64 13 -82 13 -147 -3z m145 -211 c15 -8 38 -27 49
-41 21 -26 21 -36 21 -469 0 -433 0 -443 -21 -469 -59 -74 -169 -74 -228 0
-21 26 -21 36 -21 468 0 390 2 444 16 465 40 56 124 77 184 46z"/>
<path d="M6654 2330 c-104 -21 -185 -80 -235 -172 l-34 -63 0 -490 0 -490 27
-52 c37 -70 90 -120 167 -156 55 -26 76 -31 140 -30 107 0 180 30 252 102 95
96 94 87 94 626 0 525 0 524 -82 615 -54 60 -116 94 -198 109 -65 12 -73 12
-131 1z m131 -214 c19 -8 44 -30 55 -48 19 -32 20 -49 20 -463 0 -414 -1 -431
-20 -463 -51 -83 -181 -80 -237 5 -17 25 -18 60 -18 458 0 398 1 433 18 458
40 61 112 82 182 53z"/>
<path d="M9374 2330 c-103 -22 -195 -92 -235 -183 l-24 -52 0 -495 c0 -482 1
-496 21 -541 48 -102 129 -160 253 -179 154 -24 291 51 358 196 18 39 24 72
26 135 l2 84 -102 3 -103 3 0 -56 c0 -72 -20 -119 -62 -145 -60 -37 -135 -22
-168 32 -19 32 -20 51 -20 468 0 394 2 438 18 470 20 40 53 60 100 60 79 0
131 -66 132 -167 l0 -53 106 0 107 0 -6 82 c-8 100 -29 162 -77 225 -66 88
-210 138 -326 113z"/>
<path d="M3910 2317 c0 -2 63 -188 140 -413 l140 -409 0 -302 0 -303 105 0
105 0 0 308 0 309 129 379 c71 208 134 392 140 407 l11 28 -111 -3 -112 -3
-80 -278 c-44 -153 -83 -274 -87 -270 -4 4 -42 131 -85 281 l-78 272 -109 0
c-59 0 -108 -1 -108 -3z"/>
<path d="M5640 1605 l0 -715 310 0 310 0 0 100 0 100 -205 0 -205 0 0 615 0
615 -105 0 -105 0 0 -715z"/>
<path d="M7250 1605 l0 -715 105 0 105 0 0 433 1 432 101 -307 102 -308 51 0
51 0 101 308 101 307 1 -432 1 -433 105 0 105 0 0 715 0 716 -102 -3 -101 -3
-127 -368 c-70 -202 -129 -370 -132 -373 -7 -7 -14 12 -152 411 l-114 330
-101 3 -101 3 0 -716z"/>
<path d="M8370 1605 l0 -715 310 0 310 0 0 100 0 100 -205 0 -205 0 0 210 0
210 178 2 177 3 3 98 3 97 -181 0 -180 0 0 210 0 210 205 0 205 0 0 95 0 95
-310 0 -310 0 0 -715z"/>
<path d="M10165 2293 c-3 -15 -74 -329 -156 -698 -82 -368 -152 -678 -155
-687 -5 -16 4 -18 99 -18 l104 0 29 147 30 148 141 3 141 3 11 -53 c6 -29 19
-96 29 -148 l19 -95 102 -3 c103 -3 103 -3 99 20 -2 13 -74 335 -159 715
l-154 693 -86 0 c-86 0 -87 0 -94 -27z m145 -650 c27 -136 47 -249 45 -251 -1
-1 -47 -1 -101 0 l-99 3 49 253 c27 139 51 250 54 248 2 -3 26 -117 52 -253z"/>
<path d="M10550 2225 l0 -95 120 0 120 0 0 -620 0 -620 105 0 105 0 0 620 0
620 120 0 120 0 0 95 0 95 -345 0 -345 0 0 -95z"/>
<path d="M11330 1605 l0 -715 305 0 305 0 0 100 0 100 -205 0 -205 0 0 615 0
615 -100 0 -100 0 0 -715z"/>
<path d="M9711 734 c-10 -22 -9 -25 5 -22 9 2 23 13 32 26 13 20 13 22 -5 22
-12 0 -25 -11 -32 -26z"/>
<path d="M7240 670 c0 -16 7 -20 30 -20 l30 0 0 -90 c0 -83 1 -90 20 -90 19 0
20 7 20 89 l0 90 27 3 c17 2 29 10 31 21 3 15 -6 17 -77 17 -74 0 -81 -2 -81
-20z"/>
<path d="M7430 605 c0 -78 2 -88 25 -110 32 -33 78 -33 110 0 23 22 25 32 25
110 0 78 -2 85 -20 85 -17 0 -19 -8 -22 -81 -2 -65 -7 -84 -20 -93 -13 -8 -23
-8 -35 0 -14 9 -19 28 -21 93 -3 73 -5 81 -22 81 -18 0 -20 -7 -20 -85z"/>
<path d="M7766 682 c-6 -9 -76 -202 -76 -208 0 -2 9 -4 21 -4 12 0 23 8 26 20
4 16 14 20 48 20 34 0 44 -4 48 -20 3 -12 14 -20 27 -20 24 0 26 -7 -23 125
-31 83 -55 113 -71 87z m38 -109 c6 -20 4 -23 -18 -23 -30 0 -29 -2 -15 40 12
34 19 30 33 -17z"/>
<path d="M7910 580 c0 -103 1 -110 20 -110 17 0 20 7 20 45 l0 45 40 0 40 0 0
-45 c0 -38 3 -45 20 -45 19 0 20 7 20 110 0 103 -1 110 -20 110 -17 0 -20 -7
-20 -45 l0 -45 -40 0 -40 0 0 45 c0 38 -3 45 -20 45 -19 0 -20 -7 -20 -110z"/>
<path d="M8142 670 c-19 -18 -22 -32 -22 -90 0 -62 2 -70 26 -89 33 -26 75
-27 105 -2 19 15 24 30 27 84 4 60 2 68 -21 91 -32 32 -84 35 -115 6z m92 -57
c11 -42 -3 -97 -27 -101 -30 -6 -47 17 -47 63 0 62 8 77 38 73 20 -2 29 -11
36 -35z"/>
<path d="M8330 580 c0 -103 1 -110 20 -110 17 0 20 7 20 45 0 34 4 45 16 45 8
0 24 -19 35 -45 16 -36 25 -45 44 -45 l25 0 -22 45 c-20 42 -21 45 -5 63 23
25 21 68 -3 92 -15 15 -33 20 -75 20 l-55 0 0 -110z m105 45 c0 -15 -8 -21
-32 -23 -30 -3 -33 -1 -33 23 0 24 3 26 33 23 24 -2 32 -8 32 -23z"/>
<path d="M8530 580 c0 -103 1 -110 20 -110 17 0 20 7 20 45 0 34 4 45 15 45 8
0 25 -20 37 -45 17 -34 28 -45 45 -45 28 0 28 1 2 51 -19 39 -19 42 -3 60 22
24 21 65 -1 89 -14 16 -31 20 -77 20 l-58 0 0 -110z m108 43 c3 -20 -1 -23
-32 -23 -32 0 -36 3 -36 26 0 23 3 25 33 22 24 -2 33 -8 35 -25z"/>
<path d="M8750 670 c-16 -16 -20 -33 -20 -89 0 -63 2 -71 26 -90 30 -24 52
-26 88 -10 51 24 62 154 16 191 -30 24 -85 23 -110 -2z m85 -90 c0 -54 -3 -65
-18 -68 -32 -6 -47 17 -47 73 0 59 5 67 40 63 24 -3 25 -6 25 -68z"/>
<path d="M9015 620 c23 -45 35 -84 35 -110 0 -33 3 -40 20 -40 17 0 20 7 20
50 0 37 8 64 30 103 36 64 36 67 8 67 -17 0 -28 -11 -41 -43 l-19 -42 -21 43
c-16 31 -27 42 -44 42 -23 0 -23 0 12 -70z"/>
<path d="M9270 670 c-16 -16 -20 -33 -20 -89 0 -63 2 -71 26 -90 45 -36 114
-20 127 29 4 16 0 20 -18 20 -13 0 -25 -7 -29 -15 -7 -18 -37 -20 -54 -3 -13
13 -16 85 -6 112 8 20 48 21 64 1 14 -17 50 -20 50 -5 0 6 -11 22 -25 35 -31
32 -86 34 -115 5z"/>
<path d="M9450 580 c0 -103 1 -110 20 -110 17 0 20 7 20 45 0 34 4 45 15 45 8
0 25 -20 37 -45 17 -34 28 -45 45 -45 28 0 28 1 2 51 -19 37 -19 42 -5 58 9
10 16 32 16 49 0 42 -31 62 -97 62 l-53 0 0 -110z m105 45 c0 -15 -8 -21 -32
-23 -30 -3 -33 -1 -33 23 0 24 3 26 33 23 24 -2 32 -8 32 -23z"/>
<path d="M9650 580 l0 -110 70 0 c63 0 70 2 70 20 0 17 -7 20 -50 20 -47 0
-50 2 -50 25 0 23 4 25 45 25 38 0 45 3 45 20 0 17 -7 20 -45 20 -41 0 -45 2
-45 25 0 23 3 25 50 25 43 0 50 3 50 20 0 18 -7 20 -70 20 l-70 0 0 -110z"/>
<path d="M9840 579 l0 -111 60 4 c83 6 95 20 95 109 0 89 -18 109 -101 109
l-54 0 0 -111z m106 59 c4 -7 7 -34 7 -61 -1 -52 -12 -67 -50 -67 -22 0 -23 4
-23 70 l0 70 29 0 c17 0 33 -5 37 -12z"/>
<path d="M10040 580 l0 -110 25 0 25 0 0 110 0 110 -25 0 -25 0 0 -110z"/>
<path d="M10122 673 c2 -11 14 -19 31 -21 l27 -3 0 -90 c0 -82 1 -89 20 -89
19 0 20 7 20 90 l0 90 30 0 c23 0 30 4 30 20 0 18 -7 20 -81 20 -71 0 -80 -2
-77 -17z"/>
<path d="M10330 670 c-16 -16 -20 -33 -20 -89 0 -63 2 -71 26 -90 30 -24 52
-26 88 -10 51 24 62 154 16 191 -30 24 -85 23 -110 -2z m85 -90 c0 -54 -3 -65
-18 -68 -32 -6 -47 17 -47 73 0 59 5 67 40 63 24 -3 25 -6 25 -68z"/>
<path d="M10580 580 l0 -110 25 0 c22 0 25 4 25 39 0 36 2 39 36 44 47 8 74
33 74 69 0 47 -31 68 -100 68 l-60 0 0 -110z m116 55 c9 -21 -14 -45 -42 -45
-20 0 -24 5 -24 30 0 27 3 30 30 30 18 0 33 -6 36 -15z"/>
<path d="M10800 672 c-46 -37 -35 -167 16 -191 36 -16 58 -14 88 10 24 19 26
27 26 90 0 56 -4 73 -20 89 -25 25 -80 26 -110 2z m85 -86 c0 -62 -16 -86 -49
-73 -12 5 -16 20 -16 65 0 67 4 74 40 70 24 -3 25 -6 25 -62z"/>
<path d="M10980 580 c0 -103 1 -110 20 -110 17 0 20 7 20 39 0 38 1 38 42 44
71 10 97 60 57 111 -18 23 -28 26 -80 26 l-59 0 0 -110z m113 56 c9 -23 -16
-48 -44 -44 -18 2 -25 10 -27 31 -3 25 -1 27 31 27 21 0 37 -6 40 -14z"/>
<path d="M11170 615 c0 -97 16 -132 66 -141 27 -5 42 -2 62 13 25 19 27 26 30
112 3 85 1 91 -17 91 -18 0 -20 -8 -23 -87 l-3 -88 -30 0 -30 0 -3 88 c-3 85
-3 87 -27 87 -24 0 -25 -2 -25 -75z"/>
<path d="M11390 580 l0 -110 70 0 c63 0 70 2 70 20 0 17 -7 20 -50 20 l-50 0
0 90 c0 83 -1 90 -20 90 -19 0 -20 -7 -20 -110z"/>
<path d="M11615 678 c-3 -7 -20 -57 -40 -110 l-35 -98 24 0 c15 0 26 7 29 20
4 16 14 20 45 20 31 0 41 -4 45 -20 3 -12 14 -20 27 -20 25 0 26 -5 -20 122
-26 74 -39 98 -53 98 -10 0 -20 -6 -22 -12z m40 -100 c6 -25 4 -28 -18 -28
-24 0 -25 1 -14 35 11 38 22 36 32 -7z"/>
<path d="M11760 580 l0 -110 25 0 c23 0 25 4 25 45 0 30 4 45 13 45 7 0 23
-20 35 -45 17 -36 27 -45 47 -45 l25 0 -23 48 c-23 46 -23 48 -5 64 24 23 23
63 -2 88 -16 16 -33 20 -80 20 l-60 0 0 -110z m115 45 c0 -15 -8 -21 -32 -23
-30 -3 -33 -1 -33 23 0 24 3 26 33 23 24 -2 32 -8 32 -23z"/>
</g>
</svg>
